<mxfile host="app.diagrams.net" modified="2021-02-03T04:17:15.588Z" agent="5.0 (Macintosh; Intel Mac OS X 10_15_4) AppleWebKit/537.36 (KHTML, like Gecko) Chrome/75.0.3770.80 Safari/537.36" etag="syCcDMYBny-E2eCd2YlQ" version="14.2.9" type="github">
  <diagram id="h90he7cf4M_aSmbb9c2e" name="Page-1">
    <mxGraphModel dx="1666" dy="771" grid="1" gridSize="10" guides="1" tooltips="1" connect="1" arrows="1" fold="1" page="1" pageScale="1" pageWidth="827" pageHeight="1169" math="0" shadow="0">
      <root>
        <mxCell id="0" />
        <mxCell id="1" parent="0" />
        <mxCell id="xadMABN9VnkCCNK69GoF-1" value="" style="rounded=0;whiteSpace=wrap;html=1;fillColor=#7EA6E0;" vertex="1" parent="1">
          <mxGeometry x="500" y="370" width="440" height="70" as="geometry" />
        </mxCell>
        <mxCell id="xadMABN9VnkCCNK69GoF-2" value="消息队列 MQ&amp;nbsp;中的消息" style="text;html=1;align=center;verticalAlign=middle;resizable=0;points=[];autosize=1;" vertex="1" parent="1">
          <mxGeometry x="630" y="444" width="140" height="20" as="geometry" />
        </mxCell>
        <mxCell id="xadMABN9VnkCCNK69GoF-3" value="" style="shape=table;html=1;whiteSpace=wrap;startSize=0;container=1;collapsible=0;childLayout=tableLayout;fillColor=#97D077;" vertex="1" parent="1">
          <mxGeometry x="530" y="385" width="90" height="40" as="geometry" />
        </mxCell>
        <mxCell id="xadMABN9VnkCCNK69GoF-4" value="" style="shape=partialRectangle;html=1;whiteSpace=wrap;collapsible=0;dropTarget=0;pointerEvents=0;fillColor=none;top=0;left=0;bottom=0;right=0;points=[[0,0.5],[1,0.5]];portConstraint=eastwest;" vertex="1" parent="xadMABN9VnkCCNK69GoF-3">
          <mxGeometry width="90" height="40" as="geometry" />
        </mxCell>
        <mxCell id="xadMABN9VnkCCNK69GoF-5" value="消息3&lt;br&gt;(扣减库存 2)" style="shape=partialRectangle;html=1;whiteSpace=wrap;connectable=0;overflow=hidden;fillColor=none;top=0;left=0;bottom=0;right=0;" vertex="1" parent="xadMABN9VnkCCNK69GoF-4">
          <mxGeometry width="90" height="40" as="geometry" />
        </mxCell>
        <mxCell id="xadMABN9VnkCCNK69GoF-15" value="生产者" style="ellipse;whiteSpace=wrap;html=1;shadow=1;strokeColor=#000000;fillColor=#67AB9F;" vertex="1" parent="1">
          <mxGeometry x="290" y="392.5" width="80" height="35" as="geometry" />
        </mxCell>
        <mxCell id="xadMABN9VnkCCNK69GoF-16" value="" style="endArrow=classic;html=1;entryX=-0.005;entryY=0.629;entryDx=0;entryDy=0;exitX=1;exitY=0.5;exitDx=0;exitDy=0;entryPerimeter=0;" edge="1" parent="1" source="xadMABN9VnkCCNK69GoF-15">
          <mxGeometry relative="1" as="geometry">
            <mxPoint x="261.03999999999996" y="408.0050000000001" as="sourcePoint" />
            <mxPoint x="497.8000000000002" y="411.03" as="targetPoint" />
            <Array as="points">
              <mxPoint x="400" y="411" />
            </Array>
          </mxGeometry>
        </mxCell>
        <mxCell id="xadMABN9VnkCCNK69GoF-17" value="&lt;div style=&quot;text-align: left&quot;&gt;入队列 (push)&lt;/div&gt;" style="edgeLabel;resizable=0;html=1;align=center;verticalAlign=middle;" connectable="0" vertex="1" parent="xadMABN9VnkCCNK69GoF-16">
          <mxGeometry relative="1" as="geometry">
            <mxPoint x="-3.9800000000000093" y="-1.0099999999999996" as="offset" />
          </mxGeometry>
        </mxCell>
        <mxCell id="xadMABN9VnkCCNK69GoF-24" value="消费者" style="ellipse;whiteSpace=wrap;html=1;shadow=1;strokeColor=#000000;fillColor=#B5739D;" vertex="1" parent="1">
          <mxGeometry x="1080" y="450" width="60" height="30" as="geometry" />
        </mxCell>
        <mxCell id="xadMABN9VnkCCNK69GoF-27" value="" style="shape=table;html=1;whiteSpace=wrap;startSize=0;container=1;collapsible=0;childLayout=tableLayout;fillColor=#97D077;" vertex="1" parent="1">
          <mxGeometry x="675" y="385" width="90" height="40" as="geometry" />
        </mxCell>
        <mxCell id="xadMABN9VnkCCNK69GoF-28" value="" style="shape=partialRectangle;html=1;whiteSpace=wrap;collapsible=0;dropTarget=0;pointerEvents=0;fillColor=none;top=0;left=0;bottom=0;right=0;points=[[0,0.5],[1,0.5]];portConstraint=eastwest;" vertex="1" parent="xadMABN9VnkCCNK69GoF-27">
          <mxGeometry width="90" height="40" as="geometry" />
        </mxCell>
        <mxCell id="xadMABN9VnkCCNK69GoF-29" value="消息2&lt;br&gt;(读取库存)" style="shape=partialRectangle;html=1;whiteSpace=wrap;connectable=0;overflow=hidden;fillColor=none;top=0;left=0;bottom=0;right=0;" vertex="1" parent="xadMABN9VnkCCNK69GoF-28">
          <mxGeometry width="90" height="40" as="geometry" />
        </mxCell>
        <mxCell id="xadMABN9VnkCCNK69GoF-30" value="" style="shape=table;html=1;whiteSpace=wrap;startSize=0;container=1;collapsible=0;childLayout=tableLayout;fillColor=#97D077;" vertex="1" parent="1">
          <mxGeometry x="820" y="387.5" width="90" height="40" as="geometry" />
        </mxCell>
        <mxCell id="xadMABN9VnkCCNK69GoF-31" value="" style="shape=partialRectangle;html=1;whiteSpace=wrap;collapsible=0;dropTarget=0;pointerEvents=0;fillColor=none;top=0;left=0;bottom=0;right=0;points=[[0,0.5],[1,0.5]];portConstraint=eastwest;" vertex="1" parent="xadMABN9VnkCCNK69GoF-30">
          <mxGeometry width="90" height="40" as="geometry" />
        </mxCell>
        <mxCell id="xadMABN9VnkCCNK69GoF-32" value="消息1&lt;br&gt;(扣减库存 5)" style="shape=partialRectangle;html=1;whiteSpace=wrap;connectable=0;overflow=hidden;fillColor=none;top=0;left=0;bottom=0;right=0;" vertex="1" parent="xadMABN9VnkCCNK69GoF-31">
          <mxGeometry width="90" height="40" as="geometry" />
        </mxCell>
        <mxCell id="xadMABN9VnkCCNK69GoF-34" value="" style="pointerEvents=1;shadow=0;dashed=0;html=1;strokeColor=none;labelPosition=center;verticalLabelPosition=bottom;verticalAlign=top;align=center;fillColor=#505050;shape=mxgraph.mscae.intune.inventory_software" vertex="1" parent="1">
          <mxGeometry x="290" y="260" width="80" height="70" as="geometry" />
        </mxCell>
        <mxCell id="xadMABN9VnkCCNK69GoF-35" value="某个商品有10个库存" style="text;html=1;align=center;verticalAlign=middle;resizable=0;points=[];autosize=1;" vertex="1" parent="1">
          <mxGeometry x="270" y="334" width="120" height="20" as="geometry" />
        </mxCell>
        <mxCell id="xadMABN9VnkCCNK69GoF-36" value="消费者" style="ellipse;whiteSpace=wrap;html=1;shadow=1;strokeColor=#000000;fillColor=#B5739D;" vertex="1" parent="1">
          <mxGeometry x="1080" y="395" width="60" height="30" as="geometry" />
        </mxCell>
        <mxCell id="xadMABN9VnkCCNK69GoF-37" value="消费者" style="ellipse;whiteSpace=wrap;html=1;shadow=1;strokeColor=#000000;fillColor=#B5739D;" vertex="1" parent="1">
          <mxGeometry x="1080" y="340" width="60" height="30" as="geometry" />
        </mxCell>
        <mxCell id="xadMABN9VnkCCNK69GoF-40" value="消息3" style="edgeStyle=elbowEdgeStyle;elbow=vertical;endArrow=classic;html=1;entryX=0;entryY=0.5;entryDx=0;entryDy=0;exitX=1;exitY=0.25;exitDx=0;exitDy=0;" edge="1" parent="1" source="xadMABN9VnkCCNK69GoF-1" target="xadMABN9VnkCCNK69GoF-37">
          <mxGeometry width="50" height="50" relative="1" as="geometry">
            <mxPoint x="980" y="350" as="sourcePoint" />
            <mxPoint x="990" y="330" as="targetPoint" />
          </mxGeometry>
        </mxCell>
        <mxCell id="xadMABN9VnkCCNK69GoF-42" value="" style="edgeStyle=elbowEdgeStyle;elbow=horizontal;endArrow=classic;html=1;exitX=1;exitY=0.75;exitDx=0;exitDy=0;entryX=0;entryY=0.5;entryDx=0;entryDy=0;" edge="1" parent="1" source="xadMABN9VnkCCNK69GoF-1" target="xadMABN9VnkCCNK69GoF-24">
          <mxGeometry width="50" height="50" relative="1" as="geometry">
            <mxPoint x="740" y="560" as="sourcePoint" />
            <mxPoint x="790" y="510" as="targetPoint" />
          </mxGeometry>
        </mxCell>
        <mxCell id="xadMABN9VnkCCNK69GoF-48" value="消息1" style="edgeLabel;html=1;align=center;verticalAlign=middle;resizable=0;points=[];" vertex="1" connectable="0" parent="xadMABN9VnkCCNK69GoF-42">
          <mxGeometry x="-0.1068" y="-1" relative="1" as="geometry">
            <mxPoint as="offset" />
          </mxGeometry>
        </mxCell>
        <mxCell id="xadMABN9VnkCCNK69GoF-46" value="" style="endArrow=classic;html=1;exitX=1;exitY=0.5;exitDx=0;exitDy=0;entryX=0;entryY=0.5;entryDx=0;entryDy=0;" edge="1" parent="1" source="xadMABN9VnkCCNK69GoF-1" target="xadMABN9VnkCCNK69GoF-36">
          <mxGeometry relative="1" as="geometry">
            <mxPoint x="720" y="530" as="sourcePoint" />
            <mxPoint x="820" y="530" as="targetPoint" />
          </mxGeometry>
        </mxCell>
        <mxCell id="xadMABN9VnkCCNK69GoF-47" value="消息2" style="edgeLabel;resizable=0;html=1;align=center;verticalAlign=middle;" connectable="0" vertex="1" parent="xadMABN9VnkCCNK69GoF-46">
          <mxGeometry relative="1" as="geometry" />
        </mxCell>
        <mxCell id="xadMABN9VnkCCNK69GoF-49" value="" style="outlineConnect=0;fontColor=#232F3E;gradientColor=none;fillColor=#3334B9;strokeColor=none;dashed=0;verticalLabelPosition=bottom;verticalAlign=top;align=center;html=1;fontSize=12;fontStyle=0;aspect=fixed;pointerEvents=1;shape=mxgraph.aws4.rds_mysql_instance;" vertex="1" parent="1">
          <mxGeometry x="1205.5" y="345.25" width="124.75" height="124.75" as="geometry" />
        </mxCell>
        <mxCell id="xadMABN9VnkCCNK69GoF-51" value="消息1" style="rounded=1;whiteSpace=wrap;html=1;" vertex="1" parent="1">
          <mxGeometry x="1350" y="347.38" width="70" height="22.62" as="geometry" />
        </mxCell>
        <mxCell id="xadMABN9VnkCCNK69GoF-56" value="消息1" style="rounded=1;whiteSpace=wrap;html=1;" vertex="1" parent="1">
          <mxGeometry x="1350" y="444" width="70" height="22.62" as="geometry" />
        </mxCell>
        <mxCell id="xadMABN9VnkCCNK69GoF-57" value="消息1" style="rounded=1;whiteSpace=wrap;html=1;" vertex="1" parent="1">
          <mxGeometry x="1350" y="393.69" width="70" height="22.62" as="geometry" />
        </mxCell>
        <mxCell id="xadMABN9VnkCCNK69GoF-59" value="" style="edgeStyle=elbowEdgeStyle;elbow=vertical;endArrow=classic;html=1;exitX=1;exitY=0.5;exitDx=0;exitDy=0;" edge="1" parent="1" source="xadMABN9VnkCCNK69GoF-37" target="xadMABN9VnkCCNK69GoF-49">
          <mxGeometry width="50" height="50" relative="1" as="geometry">
            <mxPoint x="740" y="560" as="sourcePoint" />
            <mxPoint x="790" y="510" as="targetPoint" />
            <Array as="points">
              <mxPoint x="1280" y="310" />
            </Array>
          </mxGeometry>
        </mxCell>
        <mxCell id="xadMABN9VnkCCNK69GoF-60" value="" style="edgeStyle=elbowEdgeStyle;elbow=vertical;endArrow=classic;html=1;exitX=1;exitY=0.5;exitDx=0;exitDy=0;" edge="1" parent="1" source="xadMABN9VnkCCNK69GoF-24">
          <mxGeometry width="50" height="50" relative="1" as="geometry">
            <mxPoint x="740" y="560" as="sourcePoint" />
            <mxPoint x="1280" y="480" as="targetPoint" />
            <Array as="points">
              <mxPoint x="1270" y="520" />
              <mxPoint x="1280" y="510" />
              <mxPoint x="1210" y="500" />
            </Array>
          </mxGeometry>
        </mxCell>
        <mxCell id="xadMABN9VnkCCNK69GoF-61" value="" style="endArrow=classic;html=1;exitX=1;exitY=0.5;exitDx=0;exitDy=0;" edge="1" parent="1" source="xadMABN9VnkCCNK69GoF-36" target="xadMABN9VnkCCNK69GoF-49">
          <mxGeometry width="50" height="50" relative="1" as="geometry">
            <mxPoint x="740" y="560" as="sourcePoint" />
            <mxPoint x="790" y="510" as="targetPoint" />
          </mxGeometry>
        </mxCell>
      </root>
    </mxGraphModel>
  </diagram>
</mxfile>
